<svg xmlns="http://www.w3.org/2000/svg" xmlns:xlink="http://www.w3.org/1999/xlink" width="628" height="180" viewBox="0 0 471.1 135"><g id="graph0" class="graph" transform="scale(1 1) rotate(0) translate(4 131)"><title>COMPONENTS</title><polygon fill="#fff" stroke="transparent" points="-4 4 -4 -131 467.096 -131 467.096 4 -4 4"/><g id="clust1" class="cluster"><title>cluster_jobsrv</title><polygon fill="#d3d3d3" stroke="#d3d3d3" points="318 -8 318 -83 400 -83 400 -8 318 -8"/><text x="359" y="-67.8" fill="#000" font-family="Times,serif" font-size="14" text-anchor="middle">JobSrv</text></g><g id="node1" class="node"><title>API</title><ellipse cx="27" cy="-109" fill="none" stroke="#000" rx="27" ry="18"/><text x="27" y="-105.3" fill="#000" font-family="Courier,monospace" font-size="14" text-anchor="middle">API</text></g><g id="node4" class="node"><title>Actix</title><polygon fill="none" stroke="#000" points="130 -127 72 -127 72 -91 130 -91 130 -127"/><text x="101" y="-105.3" fill="#000" font-family="Courier,monospace" font-size="14" text-anchor="middle">Actix</text></g><g id="edge5" class="edge"><title>API-&gt;Actix</title><path fill="none" stroke="#000" stroke-dasharray="5 2" d="M48.3906,-97.9027C52.7833,-96.5504 57.176,-95.7689 61.5687,-95.5583"/><polygon fill="#000" stroke="#000" points="61.647 -99.067 71.818 -96.103 62.018 -92.077 61.647 -99.067"/></g><g id="node2" class="node"><title>Postgres</title><ellipse cx="194" cy="-34" fill="none" stroke="#000" rx="53.891" ry="18"/><text x="194" y="-30.3" fill="#000" font-family="Courier,monospace" font-size="14" text-anchor="middle">Postgres</text></g><g id="node3" class="node"><title>Workers</title><ellipse cx="415" cy="-109" fill="none" stroke="#000" rx="48.192" ry="18"/><text x="415" y="-105.3" fill="#000" font-family="Courier,monospace" font-size="14" text-anchor="middle">Workers</text></g><g id="node6" class="node"><title>WorkerMgr</title><polygon fill="none" stroke="#000" points="348.5 -127 257.5 -127 257.5 -91 348.5 -91 348.5 -127"/><text x="303" y="-105.3" fill="#000" font-family="Courier,monospace" font-size="14" text-anchor="middle">WorkerMgr</text></g><g id="edge8" class="edge"><title>Workers-&gt;WorkerMgr</title><path fill="none" stroke="#000" stroke-dasharray="1 5" d="M378.614,-120.8439C372.1223,-121.9401 365.6305,-122.4922 359.1388,-122.4999"/><polygon fill="#000" stroke="#000" points="359.078 -118.994 348.938 -122.064 358.779 -125.988 359.078 -118.994"/></g><g id="node7" class="node"><title>LogMgr</title><polygon fill="none" stroke="#000" points="392 -52 326 -52 326 -16 392 -16 392 -52"/><text x="359" y="-30.3" fill="#000" font-family="Courier,monospace" font-size="14" text-anchor="middle">LogMgr</text></g><g id="edge9" class="edge"><title>Workers-&gt;LogMgr</title><path fill="none" stroke="#000" stroke-dasharray="1 5" d="M402.0117,-91.605C395.0261,-82.2492 386.2706,-70.5231 378.4855,-60.0967"/><polygon fill="#000" stroke="#000" points="381.29 -58.002 372.502 -52.084 375.681 -62.191 381.29 -58.002"/></g><g id="edge6" class="edge"><title>Actix-&gt;API</title><path fill="none" stroke="silver" stroke-dasharray="5 2" d="M71.8182,-121.8972C67.3035,-122.5934 62.7888,-122.6865 58.2741,-122.1767"/><polygon fill="silver" stroke="silver" points="58.897 -118.731 48.391 -120.097 57.456 -125.581 58.897 -118.731"/></g><g id="edge10" class="edge"><title>Actix-&gt;Postgres</title><path fill="none" stroke="#000" d="M123.5127,-90.8446C136.0667,-80.7204 151.8328,-68.0058 165.2691,-57.1701"/><polygon fill="#000" stroke="#000" points="167.697 -59.708 173.285 -50.706 163.303 -54.259 167.697 -59.708"/></g><g id="node5" class="node"><title>Scheduler</title><polygon fill="none" stroke="#000" points="239.5 -127 148.5 -127 148.5 -91 239.5 -91 239.5 -127"/><text x="194" y="-105.3" fill="#000" font-family="Courier,monospace" font-size="14" text-anchor="middle">Scheduler</text></g><g id="edge1" class="edge"><title>Actix-&gt;Scheduler</title><path fill="none" stroke="#000" d="M130.0625,-109C132.6849,-109 135.3074,-109 137.9298,-109"/><polygon fill="#000" stroke="#000" points="138.045 -112.5 148.045 -109 138.045 -105.5 138.045 -112.5"/></g><g id="edge11" class="edge"><title>Scheduler-&gt;Postgres</title><path fill="none" stroke="#000" d="M194,-90.8446C194,-82.3401 194,-72.0076 194,-62.4964"/><polygon fill="#000" stroke="#000" points="197.5 -62.248 194 -52.248 190.5 -62.248 197.5 -62.248"/></g><g id="edge2" class="edge"><title>Scheduler-&gt;WorkerMgr</title><path fill="none" stroke="#000" d="M239.5586,-95.8634C242.1607,-95.6519 244.7628,-95.5327 247.3649,-95.5059"/><polygon fill="#000" stroke="#000" points="247.284 -99.005 257.401 -95.86 247.531 -92.01 247.284 -99.005"/></g><g id="edge12" class="edge"><title>WorkerMgr-&gt;Postgres</title><path fill="none" stroke="#000" d="M276.6141,-90.8446C261.4101,-80.3831 242.1862,-67.1556 226.109,-56.0934"/><polygon fill="#000" stroke="#000" points="227.769 -52.987 217.547 -50.202 223.801 -58.754 227.769 -52.987"/></g><g id="edge7" class="edge"><title>WorkerMgr-&gt;Workers</title><path fill="none" stroke="#000" stroke-dasharray="1 5" d="M348.9375,-95.9359C355.4292,-95.3735 361.921,-95.3553 368.4127,-95.8814"/><polygon fill="#000" stroke="#000" points="368.257 -99.389 378.614 -97.156 369.125 -92.443 368.257 -99.389"/></g><g id="edge3" class="edge"><title>WorkerMgr-&gt;Scheduler</title><path fill="none" stroke="#000" d="M257.4015,-122.1399C254.7994,-122.3504 252.1973,-122.4686 249.5952,-122.4945"/><polygon fill="#000" stroke="#000" points="249.677 -118.995 239.559 -122.137 249.428 -125.991 249.677 -118.995"/></g><g id="edge4" class="edge"><title>LogMgr-&gt;WorkerMgr</title><path fill="none" stroke="#000" d="M345.3747,-52.2482C338.5361,-61.4071 330.1277,-72.6683 322.6087,-82.7383"/><polygon fill="#000" stroke="#000" points="319.735 -80.738 316.556 -90.845 325.344 -84.926 319.735 -80.738"/></g></g></svg>